<?xml version="1.0"?>
<svg viewBox="0 0 20 14.92" xmlns="http://www.w3.org/2000/svg" width="20" height="14.92">
    <path fill="#699e32" d="M10 1.41c4.61 0 8.34 6.05 8.34 6.05s-3.73 6.05-8.34 6.05-8.34-6-8.34-6 3.73-6 8.34-6M10 0C7.7 0 5.38 1.16 3.1 3.44A20.17 20.17 0 0 0 .46 6.72L0 7.46l.46.74a20.17 20.17 0 0 0 2.64 3.28c2.28 2.28 4.6 3.44 6.9 3.44s4.62-1.16 6.9-3.44a20.17 20.17 0 0 0 2.64-3.28l.46-.74-.46-.74a20.17 20.17 0 0 0-2.64-3.28C14.62 1.16 12.3 0 10 0zm.08 11.64a4.5 4.5 0 1 1 4.49-4.49 4.5 4.5 0 0 1-4.49 4.49zm0-7.88a3.39 3.39 0 1 0 3.38 3.39 3.39 3.39 0 0 0-3.38-3.39zm0 5.92a2.53 2.53 0 1 1 2.52-2.53 2.53 2.53 0 0 1-2.52 2.53z"></path>
    <path fill="#699e32" d="M10 1.41c4.61 0 8.34 6.05 8.34 6.05s-3.73 6.05-8.34 6.05-8.34-6-8.34-6 3.73-6 8.34-6M10 0C7.7 0 5.38 1.16 3.1 3.44A20.17 20.17 0 0 0 .46 6.72L0 7.46l.46.74a20.17 20.17 0 0 0 2.64 3.28c2.28 2.28 4.6 3.44 6.9 3.44s4.62-1.16 6.9-3.44a20.17 20.17 0 0 0 2.64-3.28l.46-.74-.46-.74a20.17 20.17 0 0 0-2.64-3.28C14.62 1.16 12.3 0 10 0zm.08 11.64a4.5 4.5 0 1 1 4.49-4.49 4.5 4.5 0 0 1-4.49 4.49zm0-7.88a3.39 3.39 0 1 0 3.38 3.39 3.39 3.39 0 0 0-3.38-3.39zm0 5.92a2.53 2.53 0 1 1 2.52-2.53 2.53 2.53 0 0 1-2.52 2.53z"></path>
</svg>